0
SECTION
2
HEADER
9
$ACADVER
1
AC1009
9
$INSBASE
10
0.000
20
0.000
30
0.000
9
$EXTMIN
10
7513938.660
20
4691208.600
9
$EXTMAX
10
7513938.660
20
4691208.600
0
ENDSEC
0
SECTION
2
TABLES
0
TABLE
2
LTYPE
70
1
0
LTYPE
2
continuous
70
64
3
Solid line
72
65
73
0
40
0.000
0
ENDTAB
0
TABLE
2
LAYER
70
1
0
LAYER
2
Parcela
70
64
62
7
6
continuous
0
ENDTAB
0
TABLE
2
STYLE
70
1
0
STYLE
2
ANNOTATIVE
70
0
40
0
41
40
50
50
71
0
42
1
3
ARIAL.TTF
4

0
ENDTAB
0
TABLE
2
VIEW
70
0
0
ENDTAB
0
ENDSEC
0
SECTION
2
BLOCKS
0
ENDSEC
0
SECTION
2
ENTITIES
0
POLYLINE
66
1
8
PARCELA
70
0
10
7512796.096
20
4692465.178
0
VERTEX
8
PARCELA
10
7512796.096
20
4692465.178
0
VERTEX
8
PARCELA
10
7512811.756
20
4692453.868
0
VERTEX
8
PARCELA
10
7512813.946
20
4692452.628
0
VERTEX
8
PARCELA
10
7512818.706
20
4692448.998
0
VERTEX
8
PARCELA
10
7512816.075
20
4692445.668
0
VERTEX
8
PARCELA
10
7512811.555
20
4692439.719
0
VERTEX
8
PARCELA
10
7512808.105
20
4692442.299
0
VERTEX
8
PARCELA
10
7512804.525
20
4692445.179
0
VERTEX
8
PARCELA
10
7512799.455
20
4692448.019
0
VERTEX
8
PARCELA
10
7512789.166
20
4692455.199
0
VERTEX
8
PARCELA
10
7512796.096
20
4692465.178
0
SEQEND
0
TEXT
8
Nr Parceles Baze
10
7512803.809
20
4692452.406
40
0.800000
1
3041-0
0
TEXT
8
Nr e Pikave Gjeodezike te Parceles Baze
10
7512811.555
20
4692439.719
40
0.800000
1
150304
0
POINT
8
Pikat
10
7512811.555
20
4692439.719
0
TEXT
8
Nr e Pikave Gjeodezike te Parceles Baze
10
7512816.075
20
4692445.668
40
0.800000
1
150305
0
POINT
8
Pikat
10
7512816.075
20
4692445.668
0
TEXT
8
Nr e Pikave Gjeodezike te Parceles Baze
10
7512818.706
20
4692448.998
40
0.800000
1
150306
0
POINT
8
Pikat
10
7512818.706
20
4692448.998
0
TEXT
8
Nr e Pikave Gjeodezike te Parceles Baze
10
7512789.166
20
4692455.199
40
0.800000
1
173265
0
POINT
8
Pikat
10
7512789.166
20
4692455.199
0
TEXT
8
Nr e Pikave Gjeodezike te Parceles Baze
10
7512799.455
20
4692448.019
40
0.800000
1
173266
0
POINT
8
Pikat
10
7512799.455
20
4692448.019
0
TEXT
8
Nr e Pikave Gjeodezike te Parceles Baze
10
7512804.525
20
4692445.179
40
0.800000
1
173267
0
POINT
8
Pikat
10
7512804.525
20
4692445.179
0
TEXT
8
Nr e Pikave Gjeodezike te Parceles Baze
10
7512808.105
20
4692442.299
40
0.800000
1
173268
0
POINT
8
Pikat
10
7512808.105
20
4692442.299
0
TEXT
8
Nr e Pikave Gjeodezike te Parceles Baze
10
7512796.096
20
4692465.178
40
0.800000
1
177186
0
POINT
8
Pikat
10
7512796.096
20
4692465.178
0
TEXT
8
Nr e Pikave Gjeodezike te Parceles Baze
10
7512813.946
20
4692452.628
40
0.800000
1
177189
0
POINT
8
Pikat
10
7512813.946
20
4692452.628
0
TEXT
8
Nr e Pikave Gjeodezike te Parceles Baze
10
7512811.756
20
4692453.868
40
0.800000
1
177190
0
POINT
8
Pikat
10
7512811.756
20
4692453.868
0
ENDSEC
0
EOF
